<svg id="visual" viewBox="0 0 1920 1080" width="1920" height="1080" xmlns="http://www.w3.org/2000/svg" xmlns:xlink="http://www.w3.org/1999/xlink" version="1.1"><rect x="0" y="0" width="1920" height="1080" fill="#001220"></rect><path d="M0 652L45.7 660.8C91.3 669.7 182.7 687.3 274.2 693.2C365.7 699 457.3 693 548.8 697.2C640.3 701.3 731.7 715.7 823 718.8C914.3 722 1005.7 714 1097 696.3C1188.3 678.7 1279.7 651.3 1371.2 658.8C1462.7 666.3 1554.3 708.7 1645.8 713.5C1737.3 718.3 1828.7 685.7 1874.3 669.3L1920 653L1920 1081L1874.3 1081C1828.7 1081 1737.3 1081 1645.8 1081C1554.3 1081 1462.7 1081 1371.2 1081C1279.7 1081 1188.3 1081 1097 1081C1005.7 1081 914.3 1081 823 1081C731.7 1081 640.3 1081 548.8 1081C457.3 1081 365.7 1081 274.2 1081C182.7 1081 91.3 1081 45.7 1081L0 1081Z" fill="#c62368"></path><path d="M0 693L45.7 692.2C91.3 691.3 182.7 689.7 274.2 682C365.7 674.3 457.3 660.7 548.8 671.5C640.3 682.3 731.7 717.7 823 742.2C914.3 766.7 1005.7 780.3 1097 765C1188.3 749.7 1279.7 705.3 1371.2 684.7C1462.7 664 1554.3 667 1645.8 677.5C1737.3 688 1828.7 706 1874.3 715L1920 724L1920 1081L1874.3 1081C1828.7 1081 1737.3 1081 1645.8 1081C1554.3 1081 1462.7 1081 1371.2 1081C1279.7 1081 1188.3 1081 1097 1081C1005.7 1081 914.3 1081 823 1081C731.7 1081 640.3 1081 548.8 1081C457.3 1081 365.7 1081 274.2 1081C182.7 1081 91.3 1081 45.7 1081L0 1081Z" fill="#d53867"></path><path d="M0 802L45.7 800.5C91.3 799 182.7 796 274.2 787C365.7 778 457.3 763 548.8 753.8C640.3 744.7 731.7 741.3 823 759.2C914.3 777 1005.7 816 1097 826.3C1188.3 836.7 1279.7 818.3 1371.2 814.8C1462.7 811.3 1554.3 822.7 1645.8 832.7C1737.3 842.7 1828.7 851.3 1874.3 855.7L1920 860L1920 1081L1874.3 1081C1828.7 1081 1737.3 1081 1645.8 1081C1554.3 1081 1462.7 1081 1371.2 1081C1279.7 1081 1188.3 1081 1097 1081C1005.7 1081 914.3 1081 823 1081C731.7 1081 640.3 1081 548.8 1081C457.3 1081 365.7 1081 274.2 1081C182.7 1081 91.3 1081 45.7 1081L0 1081Z" fill="#e34c67"></path><path d="M0 869L45.7 868C91.3 867 182.7 865 274.2 870.8C365.7 876.7 457.3 890.3 548.8 899.8C640.3 909.3 731.7 914.7 823 910.8C914.3 907 1005.7 894 1097 895.8C1188.3 897.7 1279.7 914.3 1371.2 916C1462.7 917.7 1554.3 904.3 1645.8 893.2C1737.3 882 1828.7 873 1874.3 868.5L1920 864L1920 1081L1874.3 1081C1828.7 1081 1737.3 1081 1645.8 1081C1554.3 1081 1462.7 1081 1371.2 1081C1279.7 1081 1188.3 1081 1097 1081C1005.7 1081 914.3 1081 823 1081C731.7 1081 640.3 1081 548.8 1081C457.3 1081 365.7 1081 274.2 1081C182.7 1081 91.3 1081 45.7 1081L0 1081Z" fill="#ef5f67"></path><path d="M0 1006L45.7 992.2C91.3 978.3 182.7 950.7 274.2 950C365.7 949.3 457.3 975.7 548.8 981.2C640.3 986.7 731.7 971.3 823 966C914.3 960.7 1005.7 965.3 1097 969.3C1188.3 973.3 1279.7 976.7 1371.2 985.2C1462.7 993.7 1554.3 1007.3 1645.8 1003.8C1737.3 1000.3 1828.7 979.7 1874.3 969.3L1920 959L1920 1081L1874.3 1081C1828.7 1081 1737.3 1081 1645.8 1081C1554.3 1081 1462.7 1081 1371.2 1081C1279.7 1081 1188.3 1081 1097 1081C1005.7 1081 914.3 1081 823 1081C731.7 1081 640.3 1081 548.8 1081C457.3 1081 365.7 1081 274.2 1081C182.7 1081 91.3 1081 45.7 1081L0 1081Z" fill="#fa7268"></path></svg>