<?xml version="1.0" ?><!DOCTYPE svg  PUBLIC '-//W3C//DTD SVG 1.1//EN'  'http://www.w3.org/Graphics/SVG/1.1/DTD/svg11.dtd'><svg enable-background="new 0 0 64 64" height="64px" id="Layer_1" version="1.1" viewBox="0 0 64 64" width="64px" xml:space="preserve" xmlns="http://www.w3.org/2000/svg" xmlns:xlink="http://www.w3.org/1999/xlink"><g id="calculator_x5F_finance_calculator"><g id="calculate"><path d="M50,56c0,2.75-2.25,5-5,5H10c-2.75,0-5-2.25-5-5V8c0-2.75,2.25-5,5-5h35c2.75,0,5,2.25,5,5V56z" fill="#78909C"/><path d="M45,3H10C7.25,3,5,5.25,5,8v48c0,1.621,0.794,3.055,2,3.97V9h7V5h34.97C48.055,3.794,46.621,3,45,3z" fill="#B0BEC5"/><path d="M48,56c0,1.657-1.343,3-3,3H10c-1.657,0-3-1.343-3-3V8c0-1.657,1.343-3,3-3h35c1.657,0,3,1.343,3,3V56z" fill="#90A4AE"/><path d="M46,19c0,0.55-0.45,1-1,1H10c-0.55,0-1-0.45-1-1V8c0-0.55,0.45-1,1-1h35c0.55,0,1,0.45,1,1V19z" fill="#37474F"/><g><g><g><g><path d="M36,54c0,1.1-0.9,2-2,2h-3c-1.1,0-2-0.9-2-2v-2c0-1.1,0.9-2,2-2h3c1.1,0,2,0.9,2,2V54z" fill="#BDBDBD"/></g><path d="M30,55.721V52h4v-1h1.721c-0.349-0.594-0.986-1-1.721-1l0,0h-3c-1.1,0-2,0.9-2,2v2       C29,54.734,29.406,55.372,30,55.721z" fill="#FFFFFF"/><path d="M35,54c0,0.55-0.45,1-1,1h-3c-0.55,0-1-0.45-1-1v-2c0-0.55,0.45-1,1-1h3c0.55,0,1,0.45,1,1V54z" fill="#E0E0E0"/></g><g><g><path d="M26,54c0,1.1-0.9,2-2,2h-3c-1.1,0-2-0.9-2-2v-2c0-1.1,0.9-2,2-2h3c1.1,0,2,0.9,2,2V54z" fill="#BDBDBD"/></g><path d="M20,55.721V52h4v-1h1.721c-0.349-0.594-0.986-1-1.721-1l0,0h-3c-1.1,0-2,0.9-2,2v2       C19,54.734,19.406,55.372,20,55.721z" fill="#FFFFFF"/><path d="M25,54c0,0.55-0.45,1-1,1h-3c-0.55,0-1-0.45-1-1v-2c0-0.55,0.45-1,1-1h3c0.55,0,1,0.45,1,1V54z" fill="#E0E0E0"/></g><g><g><path d="M16,54c0,1.1-0.9,2-2,2h-3c-1.1,0-2-0.9-2-2v-2c0-1.1,0.9-2,2-2h3c1.1,0,2,0.9,2,2V54z" fill="#BDBDBD"/></g><path d="M10,55.721V52h4v-1h1.721c-0.349-0.594-0.986-1-1.721-1l0,0h-3c-1.1,0-2,0.9-2,2v2       C9,54.734,9.406,55.372,10,55.721z" fill="#FFFFFF"/><path d="M15,54c0,0.55-0.45,1-1,1h-3c-0.55,0-1-0.45-1-1v-2c0-0.55,0.45-1,1-1h3c0.55,0,1,0.45,1,1V54z" fill="#E0E0E0"/></g></g><g><g><g><path d="M46,54c0,1.1-0.9,2-2,2h-3c-1.1,0-2-0.9-2-2V43c0-1.1,0.9-2,2-2h3c1.1,0,2,0.9,2,2V54z" fill="#BDBDBD"/></g><path d="M40,55.721V43h4v-1h1.721c-0.349-0.594-0.986-1-1.721-1l0,0h-3c-1.1,0-2,0.9-2,2v11       C39,54.734,39.406,55.372,40,55.721z" fill="#FFFFFF"/><path d="M45,54c0,0.55-0.45,1-1,1h-3c-0.55,0-1-0.45-1-1V43c0-0.55,0.45-1,1-1h3c0.55,0,1,0.45,1,1V54z" fill="#E0E0E0"/></g><g><g><path d="M36,45c0,1.1-0.9,2-2,2h-3c-1.1,0-2-0.9-2-2v-2c0-1.1,0.9-2,2-2h3c1.1,0,2,0.9,2,2V45z" fill="#BDBDBD"/></g><path d="M30,46.721V43h4v-1h1.721c-0.349-0.594-0.986-1-1.721-1l0,0h-3c-1.1,0-2,0.9-2,2v2       C29,45.734,29.406,46.372,30,46.721z" fill="#FFFFFF"/><path d="M35,45c0,0.55-0.45,1-1,1h-3c-0.55,0-1-0.45-1-1v-2c0-0.55,0.45-1,1-1h3c0.55,0,1,0.45,1,1V45z" fill="#E0E0E0"/></g><g><g><path d="M26,45c0,1.1-0.9,2-2,2h-3c-1.1,0-2-0.9-2-2v-2c0-1.1,0.9-2,2-2h3c1.1,0,2,0.9,2,2V45z" fill="#BDBDBD"/></g><path d="M20,46.721V43h4v-1h1.721c-0.349-0.594-0.986-1-1.721-1l0,0h-3c-1.1,0-2,0.9-2,2v2       C19,45.734,19.406,46.372,20,46.721z" fill="#FFFFFF"/><path d="M25,45c0,0.55-0.45,1-1,1h-3c-0.55,0-1-0.45-1-1v-2c0-0.55,0.45-1,1-1h3c0.55,0,1,0.45,1,1V45z" fill="#E0E0E0"/></g><g><g><path d="M16,45c0,1.1-0.9,2-2,2h-3c-1.1,0-2-0.9-2-2v-2c0-1.1,0.9-2,2-2h3c1.1,0,2,0.9,2,2V45z" fill="#BDBDBD"/></g><path d="M10,46.721V43h4v-1h1.721c-0.349-0.594-0.986-1-1.721-1l0,0h-3c-1.1,0-2,0.9-2,2v2       C9,45.734,9.406,46.372,10,46.721z" fill="#FFFFFF"/><path d="M15,45c0,0.55-0.45,1-1,1h-3c-0.55,0-1-0.45-1-1v-2c0-0.55,0.45-1,1-1h3c0.55,0,1,0.45,1,1V45z" fill="#E0E0E0"/></g></g><g><g><g><path d="M46,36c0,1.1-0.9,2-2,2h-3c-1.1,0-2-0.9-2-2v-2c0-1.1,0.9-2,2-2h3c1.1,0,2,0.9,2,2V36z" fill="#BDBDBD"/></g><path d="M40,37.721V34h4v-1h1.721c-0.349-0.594-0.986-1-1.721-1l0,0h-3c-1.1,0-2,0.9-2,2v2       C39,36.734,39.406,37.372,40,37.721z" fill="#FFFFFF"/><path d="M45,36c0,0.55-0.45,1-1,1h-3c-0.55,0-1-0.45-1-1v-2c0-0.55,0.45-1,1-1h3c0.55,0,1,0.45,1,1V36z" fill="#E0E0E0"/></g><g><g><path d="M36,36c0,1.1-0.9,2-2,2h-3c-1.1,0-2-0.9-2-2v-2c0-1.1,0.9-2,2-2h3c1.1,0,2,0.9,2,2V36z" fill="#BDBDBD"/></g><path d="M30,37.721V34h4v-1h1.721c-0.349-0.594-0.986-1-1.721-1l0,0h-3c-1.1,0-2,0.9-2,2v2       C29,36.734,29.406,37.372,30,37.721z" fill="#FFFFFF"/><path d="M35,36c0,0.55-0.45,1-1,1h-3c-0.55,0-1-0.45-1-1v-2c0-0.55,0.45-1,1-1h3c0.55,0,1,0.45,1,1V36z" fill="#E0E0E0"/></g><g><g><path d="M26,36c0,1.1-0.9,2-2,2h-3c-1.1,0-2-0.9-2-2v-2c0-1.1,0.9-2,2-2h3c1.1,0,2,0.9,2,2V36z" fill="#BDBDBD"/></g><path d="M20,37.721V34h4v-1h1.721c-0.349-0.594-0.986-1-1.721-1l0,0h-3c-1.1,0-2,0.9-2,2v2       C19,36.734,19.406,37.372,20,37.721z" fill="#FFFFFF"/><path d="M25,36c0,0.55-0.45,1-1,1h-3c-0.55,0-1-0.45-1-1v-2c0-0.55,0.45-1,1-1h3c0.55,0,1,0.45,1,1V36z" fill="#E0E0E0"/></g><g><g><path d="M16,36c0,1.1-0.9,2-2,2h-3c-1.1,0-2-0.9-2-2v-2c0-1.1,0.9-2,2-2h3c1.1,0,2,0.9,2,2V36z" fill="#BDBDBD"/></g><path d="M10,37.721V34h4v-1h1.721c-0.349-0.594-0.986-1-1.721-1l0,0h-3c-1.1,0-2,0.9-2,2v2       C9,36.734,9.406,37.372,10,37.721z" fill="#FFFFFF"/><path d="M15,36c0,0.55-0.45,1-1,1h-3c-0.55,0-1-0.45-1-1v-2c0-0.55,0.45-1,1-1h3c0.55,0,1,0.45,1,1V36z" fill="#E0E0E0"/></g></g><g><g><g><path d="M46,27c0,1.1-0.9,2-2,2h-3c-1.1,0-2-0.9-2-2v-2c0-1.1,0.9-2,2-2h3c1.1,0,2,0.9,2,2V27z" fill="#BDBDBD"/></g><path d="M40,28.721V25h4v-1h1.721c-0.349-0.594-0.986-1-1.721-1l0,0h-3c-1.1,0-2,0.9-2,2v2       C39,27.734,39.406,28.372,40,28.721z" fill="#FFFFFF"/><path d="M45,27c0,0.55-0.45,1-1,1h-3c-0.55,0-1-0.45-1-1v-2c0-0.55,0.45-1,1-1h3c0.55,0,1,0.45,1,1V27z" fill="#E0E0E0"/></g><g><g><path d="M36,27c0,1.1-0.9,2-2,2h-3c-1.1,0-2-0.9-2-2v-2c0-1.1,0.9-2,2-2h3c1.1,0,2,0.9,2,2V27z" fill="#BDBDBD"/></g><path d="M30,28.721V25h4v-1h1.721c-0.349-0.594-0.986-1-1.721-1l0,0h-3c-1.1,0-2,0.9-2,2v2       C29,27.734,29.406,28.372,30,28.721z" fill="#FFFFFF"/><path d="M35,27c0,0.55-0.45,1-1,1h-3c-0.55,0-1-0.45-1-1v-2c0-0.55,0.45-1,1-1h3c0.55,0,1,0.45,1,1V27z" fill="#E0E0E0"/></g><g><g><path d="M26,27c0,1.1-0.9,2-2,2h-3c-1.1,0-2-0.9-2-2v-2c0-1.1,0.9-2,2-2h3c1.1,0,2,0.9,2,2V27z" fill="#BDBDBD"/></g><path d="M20,28.721V25h4v-1h1.721c-0.349-0.594-0.986-1-1.721-1l0,0h-3c-1.1,0-2,0.9-2,2v2       C19,27.734,19.406,28.372,20,28.721z" fill="#FFFFFF"/><path d="M25,27c0,0.55-0.45,1-1,1h-3c-0.55,0-1-0.45-1-1v-2c0-0.55,0.45-1,1-1h3c0.55,0,1,0.45,1,1V27z" fill="#E0E0E0"/></g><g><g><path d="M16,27c0,1.1-0.9,2-2,2h-3c-1.1,0-2-0.9-2-2v-2c0-1.1,0.9-2,2-2h3c1.1,0,2,0.9,2,2V27z" fill="#BDBDBD"/></g><path d="M10,28.721V25h4v-1h1.721c-0.349-0.594-0.986-1-1.721-1l0,0h-3c-1.1,0-2,0.9-2,2v2       C9,27.734,9.406,28.372,10,28.721z" fill="#FFFFFF"/><path d="M15,27c0,0.55-0.45,1-1,1h-3c-0.55,0-1-0.45-1-1v-2c0-0.55,0.45-1,1-1h3c0.55,0,1,0.45,1,1V27z" fill="#E0E0E0"/></g></g></g><g><rect fill="#64FFDA" height="1" width="3" x="39" y="17"/><rect fill="#64FFDA" height="1" width="3" x="39" y="10"/><rect fill="#64FFDA" height="6" width="1" x="42" y="11"/><rect fill="#64FFDA" height="6" width="1" x="38" y="11"/></g><polygon fill="#FFFFFF" opacity="0.1" points="19.857,20 27.905,7 24.905,7 16.857,20   "/><path d="M22.905,7h-8L9,16.538V19c0,0.55,0.45,1,1,1h4.857L22.905,7z" fill="#FFFFFF" opacity="0.1"/></g><g><path d="M58.103,5.367L52,5v46.93V52h6V8h1v18l1,1V8C60,6.896,59.15,5.717,58.103,5.367z" fill="#455A64"/><polygon fill="#455A64" points="55,61 52,52 58,52   "/><polygon fill="#999999" points="55,61 53,52 54,52   "/><polygon fill="#FF7043" points="58,5.34 52,4 52,51.93 52,52 58,52 58,28 58,8   "/><polygon fill="#FF8A65" points="53,4.223 53,52 54,52 54,4.447   "/><rect fill="#455A64" height="1" width="6" x="52" y="25"/></g></g></svg>