<?xml version="1.0" ?><svg viewBox="0 0 32 32" xmlns="http://www.w3.org/2000/svg"><defs><style>.cls-1{fill:#0e6ae0;}.cls-2{fill:#d8e1ef;}.cls-3{fill:#0593ff;}</style></defs><title/><g id="Password"><path class="cls-1" d="M27,15H21a1,1,0,0,1-1-1V11a4,4,0,0,1,8,0v3A1,1,0,0,1,27,15Zm-5-2h4V11a2,2,0,0,0-4,0Z"/><path class="cls-2" d="M21,23a1,1,0,0,1-1-1V17a1,1,0,0,0-1-1H5a3,3,0,0,0-3,3v3a3,3,0,0,0,3,3H21a1,1,0,0,0,0-2Z"/><path class="cls-3" d="M7.85,19.15a.48.48,0,0,0-.7,0l-.65.64-.65-.64a.49.49,0,0,0-.7.7l.64.65-.64.65a.49.49,0,0,0,.7.7l.65-.64.65.64a.49.49,0,1,0,.7-.7l-.64-.65.64-.65A.48.48,0,0,0,7.85,19.15Z"/><path class="cls-3" d="M11.85,19.15a.48.48,0,0,0-.7,0l-.65.64-.65-.64a.49.49,0,0,0-.7.7l.64.65-.64.65a.49.49,0,0,0,.7.7l.65-.64.65.64a.49.49,0,1,0,.7-.7l-.64-.65.64-.65A.48.48,0,0,0,11.85,19.15Z"/><path class="cls-3" d="M15.21,20.5l.64-.65a.49.49,0,0,0-.7-.7l-.65.64-.65-.64a.49.49,0,0,0-.7.7l.64.65-.64.65a.49.49,0,0,0,.7.7l.65-.64.65.64a.49.49,0,1,0,.7-.7Z"/><rect class="cls-3" height="12" rx="3" ry="3" width="12" x="18" y="13"/><path class="cls-1" d="M26,18a2,2,0,1,0-3,1.72V21a1,1,0,0,0,2,0V19.72A2,2,0,0,0,26,18Z"/></g></svg>