<?xml version="1.0" encoding="iso-8859-1"?>
<!-- Generator: Adobe Illustrator 19.0.0, SVG Export Plug-In . SVG Version: 6.00 Build 0)  -->
<svg version="1.1" id="Layer_1" xmlns="http://www.w3.org/2000/svg" xmlns:xlink="http://www.w3.org/1999/xlink" x="0px" y="0px"
	 viewBox="0 0 511.999 511.999" style="enable-background:new 0 0 511.999 511.999;" xml:space="preserve">
<path style="fill:#CCCCCC;" d="M158.566,132.708L38.512,12.653c-6.232-6.232-16.336-6.232-22.569,0l-6.771,6.771l27.45,45.064
	l14.679-2.935l18.056,18.056L58.709,90.256l16.666,19.444l6.019-6.019l18.056,18.056l-7.407,7.407l27.287,31.835
	c-17.839,26.99-14.436,63.885,10.208,87.096c25.731,24.234,66.351,24.583,92.466,0.765c28.896-26.354,29.671-71.171,2.327-98.516
	C206.511,132.505,181.279,126.646,158.566,132.708z M201.761,224.048c-6.647,6.647-17.426,6.647-24.073,0s-6.647-17.426,0-24.073
	s17.426-6.647,24.073,0S208.408,217.401,201.761,224.048z"/>
<path style="fill:#B2B2B2;" d="M15.943,12.653l-6.771,6.771l27.45,45.064l14.679-2.935l18.056,18.056L58.709,90.256l16.666,19.444
	l6.019-6.019l18.056,18.056l-7.407,7.407l27.287,31.835c-17.839,26.99-14.436,63.885,10.208,87.096
	c18.524,17.446,44.762,22.511,67.752,15.095c-28.264-6.222-56.38-30.585-60.447-50.92c-4.445-22.227,0.398-37.475,6.039-46.984
	L18.265,10.742C17.449,11.298,16.668,11.93,15.943,12.653z"/>
<path style="fill:#FFD791;" d="M268.109,269.336l-6.019,90.276l144.441,144.44l96.294-96.294l-144.441-144.44L268.109,269.336z
	 M341.76,342.987c-9.972,9.972-26.139,9.972-36.11,0c-9.972-9.972-9.972-26.139,0-36.11c9.972-9.972,26.139-9.972,36.11,0
	C351.732,316.849,351.732,333.015,341.76,342.987z"/>
<polygon style="fill:#F8BE73;" points="262.091,359.611 406.532,504.052 427.88,482.704 264.522,323.146 "/>
<polygon style="fill:#FF8C78;" points="358.134,399.497 401.641,445.748 443.77,403.62 406.156,366.005 366.645,365.452 "/>
<g>
	<path style="fill:#C4DF64;" d="M443.247,235.655c-12.416-15.831-30.119-18.629-34.045-19.15c3.926-0.521,21.629-3.319,34.045-19.15
		c8.681-11.075,10.267-22.768,10.639-27.662c0.372,4.894,1.958,16.586,10.639,27.662c12.416,15.831,30.119,18.629,34.045,19.15
		c-3.926,0.521-21.629,3.319-34.045,19.15c-8.681,11.075-10.267,22.768-10.639,27.662
		C453.513,258.423,451.928,246.731,443.247,235.655z"/>
	<path style="fill:#C4DF64;" d="M238.976,73.942c-12.416-15.831-30.119-18.629-34.045-19.15c3.926-0.521,21.629-3.319,34.045-19.15
		c8.681-11.075,10.267-22.768,10.639-27.662c0.372,4.894,1.958,16.586,10.639,27.662c12.416,15.831,30.119,18.629,34.045,19.15
		c-3.926,0.521-21.629,3.319-34.045,19.15c-8.681,11.075-10.267,22.768-10.639,27.662C249.243,96.709,247.658,85.017,238.976,73.942
		z"/>
	<path style="fill:#C4DF64;" d="M128.33,405.881c-12.416-15.831-30.119-18.629-34.045-19.15c3.926-0.521,21.629-3.319,34.045-19.15
		c8.681-11.075,10.267-22.768,10.639-27.662c0.372,4.894,1.958,16.586,10.639,27.662c12.416,15.831,30.119,18.629,34.045,19.15
		c-3.926,0.521-21.629,3.319-34.045,19.15c-8.681,11.075-10.267,22.768-10.639,27.662
		C138.597,428.648,137.012,416.956,128.33,405.881z"/>
</g>
<path d="M508.468,402.115l-144.441-144.44c-1.627-1.627-3.879-2.478-6.174-2.319l-72.928,4.862l-34.355-45.809
	c0.976-4.614,1.549-9.352,1.661-14.181c0.483-20.983-7.423-40.71-22.26-55.548c-18.022-18.022-44.048-25.76-68.899-20.752
	l-27.972-27.972c-3.116-3.116-8.169-3.116-11.284,0c-3.116,3.116-3.116,8.169,0,11.284l31.108,31.108
	c2.014,2.015,4.949,2.802,7.699,2.067c20.699-5.525,42.949,0.433,58.064,15.549c11.724,11.725,17.972,27.314,17.591,43.897
	c-0.281,12.191-4.144,23.688-11.055,33.381l-13.058-10.26c4.082-8.371,3.123-18.635-2.508-26.065
	c-5.433-7.17-14.512-10.895-23.416-9.654c-8.841,1.233-16.535,7.291-19.789,15.61c-3.181,8.134-1.831,17.611,3.544,24.502
	c7.224,9.262,20.334,12.28,30.868,7.025l13.433,10.554c-23.077,18.961-57.32,18.002-79.29-2.69
	c-21.371-20.126-25.165-52.462-9.022-76.888c1.965-2.973,1.72-6.888-0.599-9.592l-22.478-26.225l2.182-2.182
	c3.116-3.116,3.116-8.169,0-11.284L87.036,98.039c-3.043-3.044-8.125-3.078-11.209-0.073l-6.25-7.292l5.423-5.423
	c3.116-3.116,3.116-8.169,0-11.284L56.944,55.913c-1.886-1.886-4.589-2.706-7.207-2.182l-9.204,1.841L19.252,20.632l2.334-2.335
	c3.112-3.11,8.173-3.111,11.285,0l63.415,63.414c3.116,3.116,8.169,3.116,11.284,0c3.116-3.116,3.116-8.169,0-11.284L44.155,7.011
	c-9.334-9.333-24.521-9.333-33.854,0l-6.771,6.771c-2.603,2.603-3.087,6.649-1.172,9.793l27.45,45.064
	c1.744,2.864,5.093,4.329,8.379,3.674l10.491-2.098l9.393,9.393l-5.006,5.006c-2.948,2.948-3.13,7.669-0.416,10.835l16.667,19.444
	c3.258,3.801,8.712,3.442,12.076,0.073l6.771,6.771l-1.765,1.765c-2.948,2.948-3.13,7.669-0.416,10.835l23.533,27.454
	c-16.682,30.181-10.993,68.035,14.55,92.093c14.545,13.698,33.336,20.564,52.138,20.563c18.248-0.001,36.501-6.478,50.875-19.449
	l32.298,25.377l-5.247,78.706c-0.153,2.296,0.693,4.546,2.319,6.173l90.957,90.957c3.117,3.116,8.169,3.116,11.285,0
	c3.116-3.116,3.116-8.169,0-11.284l-88.397-88.397l4.281-64.213l20.127,15.814c-2.937,5.05-4.51,10.804-4.51,16.802
	c0,10.965,5.494,21.385,14.513,27.617c8.862,6.125,20.48,7.563,30.588,3.848c9.44-3.47,16.992-11.257,20.178-20.793
	c3.004-8.991,2.035-19.083-2.674-27.317c-5.918-10.352-17.174-16.869-29.091-16.869c-6.427,0-12.573,1.805-17.873,5.161
	l-25.532-20.06l75.001-4.999l136.239,136.239l-85.009,85.009l-22.309-22.309c-3.117-3.116-8.169-3.116-11.285,0
	c-3.116,3.116-3.116,8.169,0,11.284l27.951,27.951c3.075,3.074,8.21,3.074,11.285,0l96.294-96.294
	C511.585,410.284,511.585,405.232,508.468,402.115z M244.227,232.549l21.812,29.083c-1.056,0.283-2.022,0.779-2.858,1.436
	l-25.385-19.945C240.242,239.766,242.38,236.228,244.227,232.549z M183.33,205.617c2.713-2.713,6.976-3.407,10.412-1.705
	c3.409,1.687,5.405,5.434,4.945,9.203c-5.101-1.51-10.376,2.504-10.243,7.84C181.192,219.932,178.175,210.772,183.33,205.617z
	 M323.706,307.378c11.529,0,20.033,11.39,16.86,22.432c-3.011,10.475-15.232,15.605-24.901,10.704
	c-5.807-2.944-9.515-9.084-9.515-15.581c0-2.357,0.463-4.641,1.343-6.752l3.156,2.479c3.42,2.687,8.519,2.074,11.204-1.345
	c2.723-3.465,2.12-8.481-1.345-11.204l-0.444-0.348C321.249,307.513,322.466,307.378,323.706,307.378z"/>
<path d="M396,451.391c3.074,3.073,8.212,3.073,11.285,0l42.129-42.129c3.116-3.116,3.116-8.169,0-11.284l-28.28-28.28
	c4.097-0.195,8.558,0.123,11.176-3.713c3.647-5.344-0.536-12.738-6.974-12.464l-63.192,3.01c-4.014,0.196-7.449,3.544-7.591,7.591
	l-1.057,22.196l-0.377-0.377c-3.117-3.116-8.169-3.116-11.285,0c-3.116,3.116-3.116,8.169,0,11.284l10.636,10.636l-0.927,19.452
	c-0.21,4.402,3.189,8.14,7.591,8.351c0.129,0.005,0.257,0.008,0.385,0.008c4.232,0,7.76-3.327,7.963-7.599l0.236-4.963L396,451.391z
	 M370.148,372.126l29.58-1.409c0.237,0.323,32.759,32.902,32.759,32.902l-9.779,9.779l-18.431-18.431
	c-3.117-3.116-8.169-3.116-11.285,0c-3.116,3.116-3.116,8.169,0,11.284l18.432,18.432l-9.779,9.779l-32.897-32.897L370.148,372.126z
	"/>
<path d="M408.151,224.415c5.416,0.719,19.068,3.736,28.816,16.163c6.926,8.836,8.588,18.418,8.962,23.343
	c0.316,4.161,3.784,7.375,7.957,7.375s7.641-3.214,7.957-7.375c0.374-4.925,2.036-14.507,8.961-23.342
	c9.749-12.43,23.4-15.446,28.817-16.165c3.966-0.527,6.929-3.909,6.929-7.91s-2.963-7.382-6.929-7.91
	c-5.417-0.719-19.068-3.735-28.816-16.163c-6.926-8.836-8.588-18.418-8.962-23.343c-0.316-4.161-3.784-7.375-7.957-7.375
	s-7.641,3.214-7.957,7.375c-0.374,4.925-2.036,14.507-8.961,23.342c-9.749,12.43-23.4,15.446-28.817,16.165
	c-3.966,0.527-6.929,3.909-6.929,7.91C401.222,220.506,404.185,223.888,408.151,224.415z M449.527,202.277
	c1.66-2.117,3.104-4.257,4.36-6.391c5.009,8.511,12.179,15.641,20.704,20.619c-8.524,4.978-15.697,12.107-20.704,20.619
	c-1.255-2.133-2.7-4.274-4.36-6.391c0,0,0-0.001-0.001-0.001c-5.008-6.385-10.742-10.955-16.343-14.227
	C438.783,213.234,444.519,208.663,449.527,202.277z"/>
<path d="M203.88,62.701c5.416,0.72,19.068,3.736,28.816,16.163c6.925,8.834,8.588,18.418,8.962,23.344
	c0.317,4.16,3.784,7.374,7.957,7.374s7.64-3.214,7.957-7.374c0.376-4.927,2.037-14.511,8.961-23.343
	c9.749-12.43,23.4-15.446,28.817-16.165c3.966-0.527,6.929-3.909,6.929-7.91s-2.963-7.382-6.929-7.91
	c-5.417-0.719-19.068-3.735-28.816-16.163c-6.925-8.834-8.587-18.418-8.962-23.344C257.255,3.214,253.788,0,249.615,0
	s-7.64,3.214-7.957,7.374c-0.374,4.927-2.038,14.511-8.961,23.343c-9.749,12.43-23.401,15.445-28.817,16.165
	c-3.966,0.527-6.928,3.909-6.928,7.91S199.915,62.174,203.88,62.701z M245.257,40.564c1.66-2.117,3.103-4.257,4.359-6.391
	c5.009,8.511,12.177,15.64,20.704,20.619c-8.525,4.979-15.696,12.107-20.704,20.619c-1.255-2.134-2.7-4.274-4.359-6.391
	l-0.001-0.001c-5.008-6.385-10.742-10.955-16.343-14.227C234.513,51.52,240.249,46.949,245.257,40.564z"/>
<path d="M184.704,378.82c-5.417-0.72-19.069-3.735-28.816-16.163c-6.925-8.834-8.588-18.418-8.962-23.344
	c-0.317-4.16-3.784-7.374-7.957-7.374c-4.172,0-7.64,3.214-7.957,7.374c-0.374,4.927-2.038,14.511-8.961,23.343
	c-9.749,12.43-23.401,15.445-28.817,16.165c-3.966,0.527-6.928,3.909-6.928,7.91s2.963,7.382,6.928,7.91
	c5.416,0.72,19.068,3.736,28.816,16.163c6.925,8.834,8.588,18.418,8.962,23.344c0.317,4.16,3.784,7.374,7.957,7.374
	c4.172,0,7.64-3.214,7.957-7.374c0.374-4.927,2.038-14.511,8.961-23.343c9.749-12.43,23.401-15.445,28.817-16.165
	c3.966-0.527,6.928-3.909,6.928-7.91S188.671,379.348,184.704,378.82z M143.328,400.958c-1.66,2.117-3.103,4.257-4.359,6.391
	c-1.255-2.134-2.7-4.274-4.359-6.391l-0.001-0.001c-5.008-6.385-10.742-10.955-16.343-14.227
	c8.525-4.979,15.696-12.107,20.704-20.619c5.009,8.511,12.177,15.64,20.704,20.619C154.072,390.002,148.337,394.572,143.328,400.958
	z"/>
<g>
</g>
<g>
</g>
<g>
</g>
<g>
</g>
<g>
</g>
<g>
</g>
<g>
</g>
<g>
</g>
<g>
</g>
<g>
</g>
<g>
</g>
<g>
</g>
<g>
</g>
<g>
</g>
<g>
</g>
</svg>
